<mxfile host="app.diagrams.net" modified="2024-01-29T20:10:02.278Z" agent="Mozilla/5.0 (Macintosh; Intel Mac OS X 10_15_7) AppleWebKit/537.36 (KHTML, like Gecko) Chrome/121.0.0.0 Safari/537.36" etag="fAHd8i0GYOgrH3DJNUS2" version="23.0.2" type="github">
  <diagram name="Page-1" id="HMGHrsQWz5TynOLCG9uY">
    <mxGraphModel dx="856" dy="505" grid="1" gridSize="10" guides="1" tooltips="1" connect="1" arrows="1" fold="1" page="1" pageScale="1" pageWidth="850" pageHeight="1100" math="0" shadow="0">
      <root>
        <mxCell id="0" />
        <mxCell id="1" parent="0" />
        <mxCell id="LziWdQEWnYDjEhwxR9q2-1" value="Professors" style="rounded=0;whiteSpace=wrap;html=1;" vertex="1" parent="1">
          <mxGeometry x="170" y="130" width="120" height="60" as="geometry" />
        </mxCell>
        <mxCell id="LziWdQEWnYDjEhwxR9q2-2" value="Projects" style="rounded=0;whiteSpace=wrap;html=1;" vertex="1" parent="1">
          <mxGeometry x="80" y="370" width="120" height="60" as="geometry" />
        </mxCell>
        <mxCell id="LziWdQEWnYDjEhwxR9q2-3" value="Grad Students" style="rounded=0;whiteSpace=wrap;html=1;" vertex="1" parent="1">
          <mxGeometry x="610" y="130" width="120" height="60" as="geometry" />
        </mxCell>
        <mxCell id="LziWdQEWnYDjEhwxR9q2-4" value="Department" style="rounded=0;whiteSpace=wrap;html=1;" vertex="1" parent="1">
          <mxGeometry x="580" y="370" width="120" height="60" as="geometry" />
        </mxCell>
        <mxCell id="LziWdQEWnYDjEhwxR9q2-5" value="&lt;u&gt;SSN&lt;/u&gt;" style="ellipse;whiteSpace=wrap;html=1;" vertex="1" parent="1">
          <mxGeometry x="50" y="50" width="80" height="50" as="geometry" />
        </mxCell>
        <mxCell id="LziWdQEWnYDjEhwxR9q2-6" value="Age" style="ellipse;whiteSpace=wrap;html=1;" vertex="1" parent="1">
          <mxGeometry x="140" y="50" width="80" height="50" as="geometry" />
        </mxCell>
        <mxCell id="LziWdQEWnYDjEhwxR9q2-7" value="Rank" style="ellipse;whiteSpace=wrap;html=1;" vertex="1" parent="1">
          <mxGeometry x="230" y="50" width="80" height="50" as="geometry" />
        </mxCell>
        <mxCell id="LziWdQEWnYDjEhwxR9q2-8" value="Research Speciality" style="ellipse;whiteSpace=wrap;html=1;" vertex="1" parent="1">
          <mxGeometry x="320" y="50" width="80" height="50" as="geometry" />
        </mxCell>
        <mxCell id="LziWdQEWnYDjEhwxR9q2-9" value="" style="endArrow=none;html=1;rounded=0;entryX=0;entryY=0;entryDx=0;entryDy=0;exitX=0.5;exitY=1;exitDx=0;exitDy=0;" edge="1" parent="1" source="LziWdQEWnYDjEhwxR9q2-5" target="LziWdQEWnYDjEhwxR9q2-1">
          <mxGeometry width="50" height="50" relative="1" as="geometry">
            <mxPoint x="100" y="170" as="sourcePoint" />
            <mxPoint x="150" y="120" as="targetPoint" />
          </mxGeometry>
        </mxCell>
        <mxCell id="LziWdQEWnYDjEhwxR9q2-10" value="" style="endArrow=none;html=1;rounded=0;entryX=0.25;entryY=0;entryDx=0;entryDy=0;exitX=0.5;exitY=1;exitDx=0;exitDy=0;" edge="1" parent="1" source="LziWdQEWnYDjEhwxR9q2-6" target="LziWdQEWnYDjEhwxR9q2-1">
          <mxGeometry width="50" height="50" relative="1" as="geometry">
            <mxPoint x="100" y="110" as="sourcePoint" />
            <mxPoint x="180" y="140" as="targetPoint" />
          </mxGeometry>
        </mxCell>
        <mxCell id="LziWdQEWnYDjEhwxR9q2-11" value="" style="endArrow=none;html=1;rounded=0;entryX=0.75;entryY=0;entryDx=0;entryDy=0;exitX=0.5;exitY=1;exitDx=0;exitDy=0;" edge="1" parent="1" source="LziWdQEWnYDjEhwxR9q2-7" target="LziWdQEWnYDjEhwxR9q2-1">
          <mxGeometry width="50" height="50" relative="1" as="geometry">
            <mxPoint x="190" y="110" as="sourcePoint" />
            <mxPoint x="210" y="140" as="targetPoint" />
          </mxGeometry>
        </mxCell>
        <mxCell id="LziWdQEWnYDjEhwxR9q2-12" value="" style="endArrow=none;html=1;rounded=0;entryX=1;entryY=0;entryDx=0;entryDy=0;exitX=0.5;exitY=1;exitDx=0;exitDy=0;" edge="1" parent="1" source="LziWdQEWnYDjEhwxR9q2-8" target="LziWdQEWnYDjEhwxR9q2-1">
          <mxGeometry width="50" height="50" relative="1" as="geometry">
            <mxPoint x="280" y="110" as="sourcePoint" />
            <mxPoint x="270" y="140" as="targetPoint" />
          </mxGeometry>
        </mxCell>
        <mxCell id="LziWdQEWnYDjEhwxR9q2-13" value="&lt;u&gt;Project Number&lt;/u&gt;" style="ellipse;whiteSpace=wrap;html=1;" vertex="1" parent="1">
          <mxGeometry x="20" y="460" width="80" height="50" as="geometry" />
        </mxCell>
        <mxCell id="LziWdQEWnYDjEhwxR9q2-14" value="&lt;u&gt;SSN&lt;/u&gt;" style="ellipse;whiteSpace=wrap;html=1;" vertex="1" parent="1">
          <mxGeometry x="510" y="50" width="80" height="50" as="geometry" />
        </mxCell>
        <mxCell id="LziWdQEWnYDjEhwxR9q2-15" value="Name" style="ellipse;whiteSpace=wrap;html=1;" vertex="1" parent="1">
          <mxGeometry x="600" y="50" width="80" height="50" as="geometry" />
        </mxCell>
        <mxCell id="LziWdQEWnYDjEhwxR9q2-16" value="Age" style="ellipse;whiteSpace=wrap;html=1;" vertex="1" parent="1">
          <mxGeometry x="690" y="50" width="80" height="50" as="geometry" />
        </mxCell>
        <mxCell id="LziWdQEWnYDjEhwxR9q2-17" value="Degree Program" style="ellipse;whiteSpace=wrap;html=1;" vertex="1" parent="1">
          <mxGeometry x="780" y="50" width="80" height="50" as="geometry" />
        </mxCell>
        <mxCell id="LziWdQEWnYDjEhwxR9q2-19" value="Sponsor" style="ellipse;whiteSpace=wrap;html=1;" vertex="1" parent="1">
          <mxGeometry x="110" y="460" width="80" height="50" as="geometry" />
        </mxCell>
        <mxCell id="LziWdQEWnYDjEhwxR9q2-21" value="End&amp;nbsp;Date" style="ellipse;whiteSpace=wrap;html=1;" vertex="1" parent="1">
          <mxGeometry x="290" y="460" width="80" height="50" as="geometry" />
        </mxCell>
        <mxCell id="LziWdQEWnYDjEhwxR9q2-23" value="Budget" style="ellipse;whiteSpace=wrap;html=1;" vertex="1" parent="1">
          <mxGeometry x="210" y="460" width="80" height="50" as="geometry" />
        </mxCell>
        <mxCell id="LziWdQEWnYDjEhwxR9q2-24" value="Start&amp;nbsp;Date" style="ellipse;whiteSpace=wrap;html=1;" vertex="1" parent="1">
          <mxGeometry x="380" y="460" width="80" height="50" as="geometry" />
        </mxCell>
        <mxCell id="LziWdQEWnYDjEhwxR9q2-25" value="Department Number" style="ellipse;whiteSpace=wrap;html=1;" vertex="1" parent="1">
          <mxGeometry x="720" y="450" width="80" height="50" as="geometry" />
        </mxCell>
        <mxCell id="LziWdQEWnYDjEhwxR9q2-26" value="Department Name" style="ellipse;whiteSpace=wrap;html=1;" vertex="1" parent="1">
          <mxGeometry x="610" y="450" width="80" height="50" as="geometry" />
        </mxCell>
        <mxCell id="LziWdQEWnYDjEhwxR9q2-27" value="Main Office" style="ellipse;whiteSpace=wrap;html=1;" vertex="1" parent="1">
          <mxGeometry x="510" y="450" width="80" height="50" as="geometry" />
        </mxCell>
        <mxCell id="LziWdQEWnYDjEhwxR9q2-28" value="" style="endArrow=none;html=1;rounded=0;entryX=0;entryY=1;entryDx=0;entryDy=0;exitX=0.5;exitY=0;exitDx=0;exitDy=0;" edge="1" parent="1" source="LziWdQEWnYDjEhwxR9q2-13" target="LziWdQEWnYDjEhwxR9q2-2">
          <mxGeometry width="50" height="50" relative="1" as="geometry">
            <mxPoint x="400" y="340" as="sourcePoint" />
            <mxPoint x="450" y="290" as="targetPoint" />
          </mxGeometry>
        </mxCell>
        <mxCell id="LziWdQEWnYDjEhwxR9q2-29" value="" style="endArrow=none;html=1;rounded=0;entryX=0.25;entryY=1;entryDx=0;entryDy=0;exitX=0.5;exitY=0;exitDx=0;exitDy=0;" edge="1" parent="1" source="LziWdQEWnYDjEhwxR9q2-19" target="LziWdQEWnYDjEhwxR9q2-2">
          <mxGeometry width="50" height="50" relative="1" as="geometry">
            <mxPoint x="70" y="470" as="sourcePoint" />
            <mxPoint x="90" y="440" as="targetPoint" />
          </mxGeometry>
        </mxCell>
        <mxCell id="LziWdQEWnYDjEhwxR9q2-30" value="" style="endArrow=none;html=1;rounded=0;entryX=0.75;entryY=1;entryDx=0;entryDy=0;exitX=0;exitY=0;exitDx=0;exitDy=0;" edge="1" parent="1" source="LziWdQEWnYDjEhwxR9q2-23" target="LziWdQEWnYDjEhwxR9q2-2">
          <mxGeometry width="50" height="50" relative="1" as="geometry">
            <mxPoint x="160" y="470" as="sourcePoint" />
            <mxPoint x="120" y="440" as="targetPoint" />
          </mxGeometry>
        </mxCell>
        <mxCell id="LziWdQEWnYDjEhwxR9q2-31" value="" style="endArrow=none;html=1;rounded=0;entryX=1;entryY=1;entryDx=0;entryDy=0;exitX=0.5;exitY=0;exitDx=0;exitDy=0;" edge="1" parent="1" source="LziWdQEWnYDjEhwxR9q2-21" target="LziWdQEWnYDjEhwxR9q2-2">
          <mxGeometry width="50" height="50" relative="1" as="geometry">
            <mxPoint x="232" y="477" as="sourcePoint" />
            <mxPoint x="180" y="440" as="targetPoint" />
          </mxGeometry>
        </mxCell>
        <mxCell id="LziWdQEWnYDjEhwxR9q2-32" value="" style="endArrow=none;html=1;rounded=0;entryX=1;entryY=0.5;entryDx=0;entryDy=0;exitX=0.5;exitY=0;exitDx=0;exitDy=0;" edge="1" parent="1" source="LziWdQEWnYDjEhwxR9q2-24" target="LziWdQEWnYDjEhwxR9q2-2">
          <mxGeometry width="50" height="50" relative="1" as="geometry">
            <mxPoint x="380" y="485" as="sourcePoint" />
            <mxPoint x="210" y="440" as="targetPoint" />
          </mxGeometry>
        </mxCell>
        <mxCell id="LziWdQEWnYDjEhwxR9q2-33" value="" style="endArrow=none;html=1;rounded=0;exitX=0.5;exitY=0;exitDx=0;exitDy=0;" edge="1" parent="1" source="LziWdQEWnYDjEhwxR9q2-27">
          <mxGeometry width="50" height="50" relative="1" as="geometry">
            <mxPoint x="310" y="390" as="sourcePoint" />
            <mxPoint x="640" y="430" as="targetPoint" />
          </mxGeometry>
        </mxCell>
        <mxCell id="LziWdQEWnYDjEhwxR9q2-34" value="" style="endArrow=none;html=1;rounded=0;exitX=0.5;exitY=0;exitDx=0;exitDy=0;entryX=0.5;entryY=1;entryDx=0;entryDy=0;" edge="1" parent="1" source="LziWdQEWnYDjEhwxR9q2-26" target="LziWdQEWnYDjEhwxR9q2-4">
          <mxGeometry width="50" height="50" relative="1" as="geometry">
            <mxPoint x="560" y="460" as="sourcePoint" />
            <mxPoint x="650" y="440" as="targetPoint" />
          </mxGeometry>
        </mxCell>
        <mxCell id="LziWdQEWnYDjEhwxR9q2-35" value="" style="endArrow=none;html=1;rounded=0;entryX=0.5;entryY=1;entryDx=0;entryDy=0;exitX=0.5;exitY=0;exitDx=0;exitDy=0;" edge="1" parent="1" source="LziWdQEWnYDjEhwxR9q2-25" target="LziWdQEWnYDjEhwxR9q2-4">
          <mxGeometry width="50" height="50" relative="1" as="geometry">
            <mxPoint x="400" y="340" as="sourcePoint" />
            <mxPoint x="450" y="290" as="targetPoint" />
          </mxGeometry>
        </mxCell>
        <mxCell id="LziWdQEWnYDjEhwxR9q2-36" value="Manages" style="rhombus;whiteSpace=wrap;html=1;" vertex="1" parent="1">
          <mxGeometry x="100" y="240" width="80" height="80" as="geometry" />
        </mxCell>
        <mxCell id="LziWdQEWnYDjEhwxR9q2-37" value="" style="endArrow=classic;html=1;rounded=0;exitX=0.5;exitY=0;exitDx=0;exitDy=0;" edge="1" parent="1" source="LziWdQEWnYDjEhwxR9q2-2">
          <mxGeometry width="50" height="50" relative="1" as="geometry">
            <mxPoint x="90" y="370" as="sourcePoint" />
            <mxPoint x="140" y="320" as="targetPoint" />
          </mxGeometry>
        </mxCell>
        <mxCell id="LziWdQEWnYDjEhwxR9q2-39" value="" style="endArrow=none;html=1;rounded=0;entryX=0.5;entryY=1;entryDx=0;entryDy=0;exitX=0.5;exitY=0;exitDx=0;exitDy=0;" edge="1" parent="1" source="LziWdQEWnYDjEhwxR9q2-36" target="LziWdQEWnYDjEhwxR9q2-1">
          <mxGeometry width="50" height="50" relative="1" as="geometry">
            <mxPoint x="180" y="250" as="sourcePoint" />
            <mxPoint x="230" y="200" as="targetPoint" />
          </mxGeometry>
        </mxCell>
      </root>
    </mxGraphModel>
  </diagram>
</mxfile>
